<svg width="79" height="87" viewBox="0 0 79 87" fill="none" xmlns="http://www.w3.org/2000/svg">
<path d="M32.8359 4.20845L35.7976 1" stroke="#E3E3E3" stroke-width="2" stroke-linecap="round"/>
<path d="M39.0156 4.20845L41.9773 1" stroke="#E3E3E3" stroke-width="2" stroke-linecap="round"/>
<path d="M44.9297 4.20845L47.8913 1" stroke="#E3E3E3" stroke-width="2" stroke-linecap="round"/>
<path d="M44.4375 10.6264L47.3991 7.41797" stroke="#E3E3E3" stroke-width="2" stroke-linecap="round"/>
<path d="M39.5 9.63814L42.4616 6.42969" stroke="#E3E3E3" stroke-width="2" stroke-linecap="round"/>
<path d="M32.5859 9.63814L35.5476 6.42969" stroke="#E3E3E3" stroke-width="2" stroke-linecap="round"/>
<path d="M33.0781 16.0561L36.0398 12.8477" stroke="#E3E3E3" stroke-width="2" stroke-linecap="round"/>
<path d="M39.0156 15.561L41.9773 12.3525" stroke="#E3E3E3" stroke-width="2" stroke-linecap="round"/>
<path d="M44.9297 16.0561L47.8913 12.8477" stroke="#E3E3E3" stroke-width="2" stroke-linecap="round"/>
<path d="M51.3516 10.1313L54.3132 6.92285" stroke="#E3E3E3" stroke-width="2" stroke-linecap="round"/>
<path d="M50.3516 16.5483L53.3132 13.3398" stroke="#E3E3E3" stroke-width="2" stroke-linecap="round"/>
<path d="M57.7656 9.63814L60.7273 6.42969" stroke="#E3E3E3" stroke-width="2" stroke-linecap="round"/>
<path d="M57.2656 16.5483L60.2273 13.3398" stroke="#E3E3E3" stroke-width="2" stroke-linecap="round"/>
<path d="M57.2656 22.4711L60.2273 19.2627" stroke="#E3E3E3" stroke-width="2" stroke-linecap="round"/>
<path d="M63.1953 16.0561L66.157 12.8477" stroke="#E3E3E3" stroke-width="2" stroke-linecap="round"/>
<path d="M68.625 22.9653L71.5866 19.7568" stroke="#E3E3E3" stroke-width="2" stroke-linecap="round"/>
<path d="M63.1953 21.978L66.157 18.7695" stroke="#E3E3E3" stroke-width="2" stroke-linecap="round"/>
<path d="M63.1953 27.9008L66.157 24.6924" stroke="#E3E3E3" stroke-width="2" stroke-linecap="round"/>
<path d="M69.1172 28.395L72.0788 25.1865" stroke="#E3E3E3" stroke-width="2" stroke-linecap="round"/>
<path d="M75.0391 28.395L78.0007 25.1865" stroke="#E3E3E3" stroke-width="2" stroke-linecap="round"/>
<path d="M69.1172 34.812L72.0788 31.6035" stroke="#E3E3E3" stroke-width="2" stroke-linecap="round"/>
<path d="M75.0391 34.812L78.0007 31.6035" stroke="#E3E3E3" stroke-width="2" stroke-linecap="round"/>
<path d="M75.0391 41.229L78.0007 38.0205" stroke="#E3E3E3" stroke-width="2" stroke-linecap="round"/>
<path d="M69.6172 40.7358L72.5788 37.5273" stroke="#E3E3E3" stroke-width="2" stroke-linecap="round"/>
<path d="M69.1172 46.6586L72.0788 43.4502" stroke="#E3E3E3" stroke-width="2" stroke-linecap="round"/>
<path d="M75.0391 47.1518L78.0007 43.9434" stroke="#E3E3E3" stroke-width="2" stroke-linecap="round"/>
<path d="M69.1172 52.5815L72.0788 49.373" stroke="#E3E3E3" stroke-width="2" stroke-linecap="round"/>
<path d="M75.0391 53.0756L78.0007 49.8672" stroke="#E3E3E3" stroke-width="2" stroke-linecap="round"/>
<path d="M1.99219 35.3061L4.95383 32.0977" stroke="#E3E3E3" stroke-width="2" stroke-linecap="round"/>
<path d="M1.49219 42.7094L4.45383 39.501" stroke="#E3E3E3" stroke-width="2" stroke-linecap="round"/>
<path d="M1 48.6333L3.96164 45.4248" stroke="#E3E3E3" stroke-width="2" stroke-linecap="round"/>
<path d="M1 55.0502L3.96164 51.8418" stroke="#E3E3E3" stroke-width="2" stroke-linecap="round"/>
<path d="M1 60.4799L3.96164 57.2715" stroke="#E3E3E3" stroke-width="2" stroke-linecap="round"/>
<path d="M7.41406 60.4799L10.3757 57.2715" stroke="#E3E3E3" stroke-width="2" stroke-linecap="round"/>
<path d="M6.42188 66.8969L9.38352 63.6885" stroke="#E3E3E3" stroke-width="2" stroke-linecap="round"/>
<path d="M12.8516 67.8833L15.8132 64.6748" stroke="#E3E3E3" stroke-width="2" stroke-linecap="round"/>
<path d="M7.90625 73.3129L10.8679 70.1045" stroke="#E3E3E3" stroke-width="2" stroke-linecap="round"/>
<path d="M13.3438 73.3129L16.3054 70.1045" stroke="#E3E3E3" stroke-width="2" stroke-linecap="round"/>
<path d="M19.2656 73.8071L22.2273 70.5986" stroke="#E3E3E3" stroke-width="2" stroke-linecap="round"/>
<path d="M18.7656 79.7309L21.7273 76.5225" stroke="#E3E3E3" stroke-width="2" stroke-linecap="round"/>
<path d="M25.1875 79.7309L28.1491 76.5225" stroke="#E3E3E3" stroke-width="2" stroke-linecap="round"/>
<path d="M26.1797 84.1723L29.1413 80.9639" stroke="#E3E3E3" stroke-width="2" stroke-linecap="round"/>
<path d="M31.6016 79.2377L34.5632 76.0293" stroke="#E3E3E3" stroke-width="2" stroke-linecap="round"/>
<path d="M37.5312 79.2377L40.4929 76.0293" stroke="#E3E3E3" stroke-width="2" stroke-linecap="round"/>
<path d="M43.4453 79.7309L46.407 76.5225" stroke="#E3E3E3" stroke-width="2" stroke-linecap="round"/>
<path d="M43.4453 85.6528L46.407 82.4443" stroke="#E3E3E3" stroke-width="2" stroke-linecap="round"/>
<path d="M38.0234 84.1723L40.9851 80.9639" stroke="#E3E3E3" stroke-width="2" stroke-linecap="round"/>
<path d="M31.6016 84.1723L34.5632 80.9639" stroke="#E3E3E3" stroke-width="2" stroke-linecap="round"/>
</svg>
